<?xml version="1.0" encoding="iso-8859-1"?>
<!-- Generator: Adobe Illustrator 16.0.0, SVG Export Plug-In . SVG Version: 6.00 Build 0)  -->
<!DOCTYPE svg PUBLIC "-//W3C//DTD SVG 1.1//EN" "http://www.w3.org/Graphics/SVG/1.1/DTD/svg11.dtd">
<svg version="1.1" id="Capa_1" xmlns="http://www.w3.org/2000/svg" xmlns:xlink="http://www.w3.org/1999/xlink" x="0px" y="0px"
	 width="83.818px" height="83.818px" viewBox="0 0 83.818 83.818" style="enable-background:new 0 0 83.818 83.818;"
	 xml:space="preserve">
<g>
	<g>
		<polygon points="71.271,24.546 48.789,26.536 48.376,61.979 71.271,55.852 		"/>
		<polygon points="13.202,55.852 35.672,61.866 35.672,26.535 13.202,24.546 		"/>
		<polygon points="46.354,62.286 46.354,26.62 37.683,26.62 38.099,62.286 		"/>
		<path d="M41.909,83.818c23.146,0,41.909-18.764,41.909-41.908C83.817,18.764,65.055,0,41.909,0C18.764,0,0.001,18.764,0.001,41.91
			C0.001,65.055,18.765,83.818,41.909,83.818z M11.202,56.62V23.453c0-0.28,0.118-0.548,0.325-0.737s0.483-0.287,0.764-0.259
			l24.426,2.163h3.355c-1.266-1.168-4.497-2.042-6.872-2.334H13.535c-0.552,0-1-0.447-1-1s0.448-1,1-1h19.724
			c0.04,0,0.08,0.002,0.119,0.007c1.338,0.16,7.296,1.03,8.857,3.878c1.562-2.848,7.52-3.718,8.858-3.878
			c0.039-0.005,0.079-0.007,0.119-0.007h19.725c0.551,0,1,0.447,1,1s-0.449,1-1,1H51.272c-2.375,0.294-5.603,1.168-6.869,2.334
			h2.951c0.076,0,0.145,0.027,0.217,0.044c0.047-0.012,0.091-0.035,0.141-0.04l24.47-2.167c0.285-0.028,0.558,0.069,0.765,0.259
			c0.207,0.189,0.324,0.457,0.324,0.737V56.62c0,0.453-0.304,0.849-0.742,0.966L47.62,64.252c-0.086,0.023-0.172,0.034-0.258,0.034
			c-0.002,0-0.002-0.001-0.004-0.001s-0.002,0.001-0.004,0.001H36.672c-0.254,0-0.479-0.103-0.655-0.258l-24.074-6.442
			C11.506,57.469,11.202,57.073,11.202,56.62z"/>
	</g>
</g>
<g>
</g>
<g>
</g>
<g>
</g>
<g>
</g>
<g>
</g>
<g>
</g>
<g>
</g>
<g>
</g>
<g>
</g>
<g>
</g>
<g>
</g>
<g>
</g>
<g>
</g>
<g>
</g>
<g>
</g>
</svg>
